<svg width="796" height="891" viewBox="0 0 796 891" fill="none" xmlns="http://www.w3.org/2000/svg">
<path d="M796 645.674C796 659.806 785.944 677.168 773.474 684.234L420.896 884.501C408.426 891.567 388.112 891.567 375.843 884.501L23.0643 684.032C10.5944 676.966 0.537964 659.806 0.537964 645.674V244.736C0.537964 230.604 10.5944 213.242 23.0643 206.176L375.642 5.70693C388.112 -1.35895 408.426 -1.35895 420.695 5.70693L773.273 206.176C785.742 213.242 795.799 230.604 795.799 244.736V645.674H796Z" fill="url(#paint0_linear_2016_1749)"/>
<path opacity="0.12" d="M773.474 684.032C777.295 681.811 780.714 678.783 783.932 675.149L6.77294 223.538C2.9515 230.402 0.537964 237.872 0.537964 244.736V645.674C0.537964 659.806 10.5944 677.168 23.0643 684.234L375.642 884.703C388.112 891.769 408.426 891.769 420.695 884.703L773.474 684.032Z" fill="url(#paint1_linear_2016_1749)"/>
<g style="mix-blend-mode:overlay" opacity="0.2">
<path d="M773.474 206.176L420.896 5.70697C413.856 1.66932 404.403 0.0542574 395.151 0.659905V889.75C404.403 890.356 413.856 888.539 420.896 884.703L773.474 684.234C785.943 677.168 796 659.806 796 645.674V244.736C796 230.604 785.943 213.242 773.474 206.176Z" fill="url(#paint2_linear_2016_1749)"/>
</g>
<path opacity="0.1" d="M796 645.674V244.736C796 230.604 785.944 213.242 773.474 206.176L476.206 37.2005L2.34812 402.608L0.537964 405.03V645.674C0.537964 659.806 10.5944 677.168 23.0643 684.234L142.534 752.268L782.122 677.37C790.368 668.487 796 656.172 796 645.674Z" fill="url(#paint3_linear_2016_1749)"/>
<path opacity="0.05" d="M420.896 884.501L773.474 684.032C785.944 676.966 796 659.604 796 645.472V254.022L187.788 777.705L375.642 884.501C388.112 891.567 408.426 891.567 420.896 884.501Z" fill="url(#paint4_linear_2016_1749)"/>
<g style="mix-blend-mode:overlay" opacity="0.3">
<path d="M0.537964 468.825V645.472C0.537964 659.604 10.5944 676.966 23.0643 684.032L375.642 884.501C388.112 891.567 408.426 891.567 420.695 884.501L773.273 684.032C785.743 676.966 795.799 659.604 795.799 645.472V244.736C795.799 236.862 792.581 228.181 787.754 220.712L0.537964 461.154V468.825Z" fill="url(#paint5_linear_2016_1749)"/>
</g>
<path opacity="0.3" d="M455.088 292.986H307.46C307.46 300.657 308.465 343.86 310.477 350.926H455.088V292.986Z" fill="url(#paint6_linear_2016_1749)"/>
<path opacity="0.3" d="M393.945 524.343H429.947V466.403H393.945C346.277 466.403 307.46 505.164 307.46 553.212C307.46 557.048 307.862 614.181 308.264 617.814C313.896 575.217 350.099 524.343 393.945 524.343Z" fill="url(#paint7_linear_2016_1749)"/>
<path opacity="0.3" d="M393.945 726.629C302.23 726.629 227.209 654.961 221.578 564.316C221.377 567.949 221.176 598.434 221.176 602.269C221.176 698.164 298.61 775.686 393.945 775.686C489.481 775.686 566.714 697.962 566.714 602.269V575.419V553.212C566.714 648.904 489.481 726.629 393.945 726.629Z" fill="url(#paint8_linear_2016_1749)"/>
<path opacity="0.3" d="M279.704 422.998C243.702 391.302 221.176 344.668 221.176 292.784V359.809C221.176 405.838 239.076 447.628 268.441 478.717C271.86 474.882 275.681 426.632 279.704 422.998Z" fill="url(#paint9_linear_2016_1749)"/>
<path opacity="0.3" d="M595.475 466.403H566.714V524.343H595.475V466.403Z" fill="url(#paint10_linear_2016_1749)"/>
<path opacity="0.3" d="M455.088 292.986H307.46C307.46 300.657 304.04 308.127 306.052 315.193H451.266C453.278 315.193 455.088 313.578 455.088 311.357V292.986V292.986Z" fill="#414042"/>
<path opacity="0.3" d="M393.945 488.61H426.326C428.338 488.61 430.148 486.995 430.148 484.774V466.201H394.146C346.478 466.201 307.661 504.962 307.661 553.01C307.661 556.846 308.063 560.48 308.465 564.114C313.896 521.718 350.099 488.61 393.945 488.61Z" fill="#414042"/>
<path opacity="0.3" d="M393.945 726.629C302.23 726.629 227.209 654.961 221.578 564.316C221.377 567.95 221.176 571.785 221.176 575.419C221.176 671.313 298.61 748.836 393.945 748.836C489.481 748.836 566.714 671.112 566.714 575.419V553.212C566.714 648.904 489.481 726.629 393.945 726.629Z" fill="#414042"/>
<path opacity="0.3" d="M279.704 431.881C243.903 400.185 221.176 353.752 221.176 301.868V324.075C221.176 370.105 239.076 411.894 268.441 442.984C271.86 439.148 275.681 435.515 279.704 431.881Z" fill="#414042"/>
<path opacity="0.3" d="M566.714 488.61H591.855C593.866 488.61 595.676 486.995 595.676 484.774V466.201H566.915V488.61H566.714Z" fill="#414042"/>
<path d="M591.855 475.285H570.535C568.524 475.285 566.714 476.901 566.714 479.121V562.095C566.714 662.027 482.642 742.174 381.676 735.108C295.995 729.254 226.807 659.2 221.377 572.997C217.958 516.873 241.288 465.999 279.704 431.881C243.903 400.185 221.176 353.752 221.176 301.868V218.895C221.176 216.876 222.785 215.059 224.997 215.059H307.661H451.467C453.479 215.059 455.289 216.674 455.289 218.895V298.033C455.289 300.052 453.68 301.868 451.467 301.868H307.661C307.661 349.715 346.277 388.678 394.146 388.678H426.326C428.338 388.678 430.148 390.293 430.148 392.514V471.652C430.148 473.67 428.539 475.487 426.326 475.487H396.358C348.691 475.487 308.264 513.239 307.661 561.086C307.057 609.739 346.479 649.51 395.152 648.904C442.819 648.299 480.43 607.72 480.43 559.874V392.514C480.43 390.495 482.039 388.678 484.251 388.678H566.915H591.855C593.866 388.678 595.676 390.293 595.676 392.514V471.652C595.676 473.67 593.866 475.285 591.855 475.285Z" fill="url(#paint11_linear_2016_1749)"/>
<defs>
<linearGradient id="paint0_linear_2016_1749" x1="201.423" y1="102.876" x2="597.389" y2="786.148" gradientUnits="userSpaceOnUse">
<stop stop-color="#CB003D"/>
<stop offset="1" stop-color="#FF4E00"/>
</linearGradient>
<linearGradient id="paint1_linear_2016_1749" x1="215.147" y1="750.785" x2="373.998" y2="487.023" gradientUnits="userSpaceOnUse">
<stop stop-color="white" stop-opacity="0"/>
<stop offset="0.8595" stop-color="white" stop-opacity="0.5157"/>
<stop offset="1" stop-color="white" stop-opacity="0.6"/>
</linearGradient>
<linearGradient id="paint2_linear_2016_1749" x1="395.137" y1="445.154" x2="796.057" y2="445.154" gradientUnits="userSpaceOnUse">
<stop stop-color="white"/>
<stop offset="0.1063" stop-color="white" stop-opacity="0.8937"/>
<stop offset="1" stop-color="white" stop-opacity="0"/>
</linearGradient>
<linearGradient id="paint3_linear_2016_1749" x1="244.413" y1="196.762" x2="393.958" y2="436.346" gradientUnits="userSpaceOnUse">
<stop stop-color="white"/>
<stop offset="1" stop-color="white" stop-opacity="0"/>
</linearGradient>
<linearGradient id="paint4_linear_2016_1749" x1="373.898" y1="899.429" x2="795.992" y2="254.016" gradientUnits="userSpaceOnUse">
<stop stop-color="white" stop-opacity="0"/>
<stop offset="0.8937" stop-color="white" stop-opacity="0.8937"/>
<stop offset="1" stop-color="white"/>
</linearGradient>
<linearGradient id="paint5_linear_2016_1749" x1="398.298" y1="889.85" x2="398.298" y2="220.681" gradientUnits="userSpaceOnUse">
<stop stop-color="white" stop-opacity="0"/>
<stop offset="0.8937" stop-color="white" stop-opacity="0.8937"/>
<stop offset="1" stop-color="white"/>
</linearGradient>
<linearGradient id="paint6_linear_2016_1749" x1="381.366" y1="350.893" x2="381.366" y2="292.914" gradientUnits="userSpaceOnUse">
<stop stop-color="#231F20" stop-opacity="0"/>
<stop offset="0.9192" stop-color="#231F20"/>
</linearGradient>
<linearGradient id="paint7_linear_2016_1749" x1="368.779" y1="526.362" x2="368.779" y2="466.396" gradientUnits="userSpaceOnUse">
<stop stop-color="#231F20" stop-opacity="0"/>
<stop offset="1" stop-color="#231F20"/>
</linearGradient>
<linearGradient id="paint8_linear_2016_1749" x1="393.962" y1="775.639" x2="393.962" y2="553.131" gradientUnits="userSpaceOnUse">
<stop stop-color="#231F20" stop-opacity="0"/>
<stop offset="1" stop-color="#231F20"/>
</linearGradient>
<linearGradient id="paint9_linear_2016_1749" x1="250.437" y1="478.78" x2="250.437" y2="292.914" gradientUnits="userSpaceOnUse">
<stop stop-color="#231F20" stop-opacity="0"/>
<stop offset="0.9192" stop-color="#231F20"/>
</linearGradient>
<linearGradient id="paint10_linear_2016_1749" x1="581.196" y1="524.375" x2="581.196" y2="466.396" gradientUnits="userSpaceOnUse">
<stop stop-color="#231F20" stop-opacity="0"/>
<stop offset="0.9192" stop-color="#231F20"/>
</linearGradient>
<linearGradient id="paint11_linear_2016_1749" x1="408.363" y1="735.5" x2="408.363" y2="343.035" gradientUnits="userSpaceOnUse">
<stop stop-color="#D1D3D4"/>
<stop offset="1" stop-color="white"/>
</linearGradient>
</defs>
</svg>
