<?xml version="1.0" standalone="no"?>
<!DOCTYPE svg PUBLIC "-//W3C//DTD SVG 20010904//EN"
 "http://www.w3.org/TR/2001/REC-SVG-20010904/DTD/svg10.dtd">
<svg version="1.0" xmlns="http://www.w3.org/2000/svg"
 width="600.000000pt" height="600.000000pt" viewBox="0 0 600.000000 600.000000"
 preserveAspectRatio="xMidYMid meet">
<metadata>
Created by potrace 1.16, written by Peter Selinger 2001-2019
</metadata>
<g transform="translate(0.000000,600.000000) scale(0.100000,-0.100000)"
fill="#000000" stroke="none">
<path d="M0 4691 c0 -1038 3 -1310 13 -1314 8 -4 9 -6 0 -6 -16 -1 -19 -607
-2 -627 8 -10 8 -14 0 -14 -7 0 -11 -20 -11 -49 0 -39 4 -51 18 -54 16 -4 16
-5 0 -6 -17 -1 -18 -70 -18 -1311 l0 -1310 1359 0 c791 0 1362 4 1365 9 3 5
21 5 40 1 19 -4 754 -8 1635 -9 l1601 -2 0 1310 c0 720 -3 1312 -8 1315 -4 2
-6 -14 -4 -36 4 -34 -10 -71 -21 -57 -2 2 2 49 8 104 9 76 13 90 16 60 2 -22
3 91 2 250 -1 173 -7 338 -16 410 -7 66 -12 122 -10 124 8 10 18 -13 24 -57 3
-26 7 544 8 1266 l1 1312 -1358 0 c-965 0 -1361 -3 -1369 -11 -8 -8 -13 -8
-17 0 -10 16 -498 15 -514 -1 -9 -9 -15 -9 -24 0 -9 9 -326 12 -1365 12
l-1353 0 0 -1309z m3400 1295 c0 -3 -4 -8 -10 -11 -5 -3 -10 -1 -10 4 0 6 5
11 10 11 6 0 10 -2 10 -4z m-853 -12 c-4 -4 -42 -13 -84 -21 -43 -7 -90 -16
-104 -19 -15 -3 -29 -1 -33 4 -3 6 29 15 82 22 48 6 92 13 97 15 18 6 49 5 42
-1z m1021 -11 c61 -9 112 -20 112 -25 0 -12 -40 -9 -85 7 -22 8 -58 15 -80 15
-22 1 -49 5 -60 10 -30 13 -11 12 113 -7z m-1283 -42 c-15 -14 -75 -24 -75
-12 0 8 21 14 70 20 8 0 10 -2 5 -8z m1500 -13 c7 -7 2 -9 -15 -4 -14 3 -33 6
-42 6 -10 0 -18 5 -18 11 0 13 60 2 75 -13z m-1600 -18 c-3 -5 -20 -10 -36
-10 -18 0 -28 4 -24 10 3 6 20 10 36 10 18 0 28 -4 24 -10z m1687 -5 c-3 -12
-43 -7 -57 7 -7 6 2 8 25 6 19 -2 34 -7 32 -13z m-1777 -14 c-14 -14 -73 -26
-60 -13 6 5 19 12 30 15 34 8 40 8 30 -2z m1870 -11 c6 -4 38 -16 73 -25 34
-10 62 -22 62 -26 0 -12 -3 -11 -37 3 -15 6 -39 13 -53 15 -13 2 -29 8 -35 12
-5 5 -25 12 -42 16 -18 3 -33 11 -33 16 0 10 48 2 65 -11z m-1950 -20 c-3 -5
-18 -10 -33 -9 l-27 1 25 8 c35 11 42 11 35 0z m-65 -18 c0 -7 -90 -43 -106
-41 -10 0 87 48 99 49 4 0 7 -3 7 -8z m2210 -42 c0 -5 -7 -7 -15 -4 -8 4 -15
8 -15 10 0 2 7 4 15 4 8 0 15 -4 15 -10z m-2340 -8 c0 -9 -84 -52 -102 -52
-17 0 0 14 47 39 43 23 55 26 55 13z m2422 -19 c21 -9 38 -20 38 -25 0 -12
-14 -10 -36 7 -10 8 -27 15 -36 15 -19 0 -36 20 -17 20 7 0 30 -8 51 -17z
m-2547 -43 c5 -9 -8 -14 -19 -7 -2 1 -13 -6 -24 -16 -11 -10 -29 -17 -39 -14
-14 3 -11 7 15 17 17 6 32 16 32 21 0 12 27 11 35 -1z m2645 1 c0 -5 34 -25
75 -45 41 -20 75 -39 75 -41 0 -11 -30 -4 -44 10 -8 9 -17 14 -19 13 -5 -4
-81 36 -85 45 -2 4 -12 7 -22 7 -28 0 -32 15 -4 18 13 1 24 -2 24 -7z m-2780
-76 c-25 -14 -58 -32 -75 -41 -52 -26 -161 -98 -175 -113 -3 -3 -13 -10 -22
-16 -210 -124 -629 -543 -753 -753 -5 -9 -13 -19 -16 -22 -3 -3 -20 -26 -38
-52 -17 -27 -36 -48 -41 -48 -15 0 -12 16 5 30 8 7 15 19 15 26 0 8 5 14 10
14 6 0 10 7 10 15 0 8 4 15 10 15 5 0 17 15 26 33 9 17 34 52 55 76 22 24 39
50 39 57 0 8 4 14 9 14 5 0 19 16 31 35 12 19 26 33 31 29 5 -3 9 0 9 5 0 6
16 28 35 50 19 21 35 41 35 44 0 10 200 207 210 207 6 0 22 13 36 30 15 16 31
27 35 24 5 -3 9 -1 9 5 0 15 52 61 62 55 4 -3 8 2 8 10 0 9 6 16 13 16 8 0 22
9 32 20 10 11 20 18 23 15 3 -2 13 6 23 19 10 13 34 31 54 40 19 9 35 21 35
26 0 6 7 10 15 10 8 0 15 4 15 10 0 5 17 17 38 27 20 9 43 23 50 30 8 8 28 20
45 28 18 8 46 24 62 34 17 11 41 20 55 20 21 0 18 -4 -20 -24z m2960 -35 c0
-5 -7 -7 -15 -4 -8 4 -15 8 -15 10 0 2 7 4 15 4 8 0 15 -4 15 -10z m50 -15 c7
-9 27 -22 44 -31 17 -8 45 -26 61 -39 43 -36 8 -32 -42 4 -22 16 -54 36 -71
45 -33 17 -42 36 -18 36 7 0 19 -7 26 -15z m190 -135 c15 -16 34 -30 42 -30
19 -1 86 -60 67 -60 -13 0 -82 47 -144 98 -6 5 -17 12 -25 15 -10 3 -6 6 8 6
14 1 35 -11 52 -29z m221 -170 c27 -27 44 -50 37 -50 -7 0 -38 23 -68 50 -37
34 -49 50 -37 50 10 0 40 -22 68 -50z m74 -60 c3 -5 1 -10 -4 -10 -6 0 -11 5
-11 10 0 6 2 10 4 10 3 0 8 -4 11 -10z m65 -61 c7 -11 9 -23 7 -26 -8 -7 -47
30 -41 39 9 14 23 9 34 -13z m58 -60 c18 -29 6 -37 -18 -12 -10 12 -16 24 -13
27 11 10 18 7 31 -15z m39 -45 c-3 -3 -12 -4 -19 -1 -8 3 -5 6 6 6 11 1 17 -2
13 -5z m23 -24 c0 -6 20 -30 45 -54 25 -25 45 -47 45 -50 0 -25 -67 31 -103
87 -15 23 -15 27 -2 27 8 0 15 -5 15 -10z m-1290 -60 c0 -7 -323 -10 -950 -10
-627 0 -950 3 -950 10 0 7 323 10 950 10 627 0 950 -3 950 -10z m-2006 -25
c-51 -13 -101 -28 -112 -34 -11 -6 -29 -11 -40 -11 -11 0 -44 -13 -75 -30 -61
-32 -67 -34 -67 -22 0 4 12 13 28 19 15 7 53 23 86 37 32 14 62 23 67 20 5 -3
9 0 9 7 0 7 2 10 5 7 3 -3 38 3 78 13 39 10 81 18 92 17 11 0 -21 -10 -71 -23z
m2132 4 c43 -11 90 -23 104 -25 30 -6 198 -81 220 -98 8 -6 31 -20 50 -31 38
-21 40 -22 85 -59 17 -14 24 -26 18 -26 -7 0 -13 5 -13 11 0 5 -4 8 -9 4 -6
-3 -25 8 -44 25 -19 16 -38 30 -43 30 -4 0 -15 7 -24 15 -23 21 -195 105 -215
105 -9 0 -26 5 -37 11 -11 6 -61 21 -112 34 -50 13 -84 24 -75 24 9 1 51 -8
95 -20z m1300 -86 c24 -27 44 -54 44 -60 0 -23 -14 -14 -39 25 -14 20 -34 47
-45 60 -38 43 -4 21 40 -25z m-3736 -21 c0 -5 -19 -21 -42 -36 -28 -19 -44
-24 -52 -16 -7 7 -6 10 3 10 6 0 29 11 49 25 41 28 42 28 42 17z m-130 -92
c-18 -16 -35 -28 -37 -26 -2 1 -43 -38 -91 -88 -48 -50 -90 -93 -93 -96 -3 -3
-12 -16 -18 -29 -9 -15 -16 -20 -23 -13 -12 12 17 48 130 160 46 45 88 80 93
76 5 -3 9 1 9 8 0 7 10 18 23 24 39 20 41 15 7 -16z m3940 15 c7 -8 8 -15 2
-15 -5 0 -15 7 -22 15 -7 8 -8 15 -2 15 5 0 15 -7 22 -15z m30 -41 c0 -17 -22
-14 -28 4 -2 7 3 12 12 12 9 0 16 -7 16 -16z m-846 -76 c71 -74 115 -125 118
-138 2 -7 15 -25 31 -42 31 -34 34 -45 12 -45 -8 0 -15 6 -15 13 0 7 -13 29
-30 47 -16 19 -30 40 -30 46 0 6 -4 11 -10 11 -5 0 -10 4 -10 10 0 5 -33 41
-72 80 -40 38 -67 70 -59 70 8 0 37 -24 65 -52z m890 14 c14 -21 26 -41 26
-45 0 -18 -19 -3 -48 38 -20 29 -27 45 -18 45 7 0 25 -17 40 -38z m-1606 23
c-3 -3 -416 -6 -918 -6 -502 0 -915 3 -918 6 -3 3 410 5 918 5 508 0 921 -2
918 -5z m-1861 -16 c-14 -8 -22 -8 -30 0 -8 8 -3 11 19 11 25 -1 27 -2 11 -11z
m1916 0 c-8 -8 -16 -8 -30 0 -16 9 -14 10 12 11 21 0 26 -3 18 -11z m-1993
-10 c-62 -18 -174 -61 -208 -82 -25 -14 -36 -17 -45 -8 -8 8 -6 11 7 11 9 0
37 11 61 25 43 26 162 63 200 63 11 0 4 -4 -15 -9z m2093 -5 c72 -19 217 -88
252 -120 13 -12 26 -20 28 -17 3 2 8 0 11 -5 3 -6 0 -9 -7 -8 -12 1 -88 45
-97 56 -3 3 -25 14 -50 25 -25 11 -47 22 -50 25 -3 3 -43 18 -90 32 -95 30
-93 37 3 12z m1508 -76 c10 -13 18 -31 19 -40 0 -10 5 -18 10 -18 6 0 10 -9
10 -19 0 -11 6 -22 13 -24 8 -4 9 -6 0 -6 -6 -1 -25 19 -42 44 -17 26 -25 45
-18 45 7 0 4 5 -5 11 -10 5 -18 14 -18 19 0 16 11 11 31 -12z m-5141 -6 c0 -4
-4 -12 -10 -18 -12 -12 -57 -92 -71 -126 -6 -16 -16 -28 -21 -28 -16 0 0 51
31 95 16 22 31 50 35 63 7 20 36 32 36 14z m1280 -16 c0 -2 -15 -15 -34 -30
-26 -19 -37 -23 -42 -14 -4 7 -4 10 0 7 4 -4 18 4 31 17 21 21 45 32 45 20z
m-80 -62 c0 -8 -43 -43 -53 -44 -4 0 0 11 9 25 14 22 44 35 44 19z m2803 -56
c60 -60 117 -136 153 -203 28 -54 28 -55 9 -55 -8 0 -15 5 -15 12 0 16 -72
136 -101 168 -12 14 -45 49 -73 78 -28 28 -45 52 -38 52 7 0 36 -24 65 -52z
m-3223 12 c0 -17 -49 -90 -60 -90 -14 0 18 60 35 66 8 3 11 12 8 20 -3 8 0 14
6 14 6 0 11 -5 11 -10z m4445 -22 c14 -62 14 -64 -1 -44 -8 11 -14 24 -14 30
0 5 -7 18 -17 28 -15 17 -15 18 4 18 15 0 23 -9 28 -32z m-4131 -40 c-10 -12
-29 -34 -42 -48 -12 -14 -25 -33 -28 -42 -3 -10 -12 -18 -19 -18 -8 0 -12 -6
-9 -14 3 -8 -3 -23 -13 -33 -10 -10 -19 -28 -21 -38 -2 -11 -9 -24 -16 -30 -6
-5 -10 -18 -8 -27 2 -10 -1 -18 -7 -18 -6 0 -11 7 -11 15 0 21 71 155 82 155
4 0 8 5 8 12 0 6 7 20 17 30 9 10 21 28 28 41 6 12 17 21 23 20 7 -2 12 2 12
7 0 6 5 10 12 10 6 0 3 -10 -8 -22z m3328 -59 c39 -76 43 -89 30 -89 -4 0 -18
21 -31 48 -13 26 -32 64 -44 86 -14 28 -16 37 -6 34 8 -2 31 -38 51 -79z
m-4532 47 c0 -7 -7 -19 -15 -26 -12 -10 -15 -9 -15 7 0 11 3 23 7 26 11 12 23
8 23 -7z m3790 -13 c-69 -24 -140 -68 -140 -88 -1 -17 -40 -58 -48 -51 -4 4 0
13 9 19 9 7 14 17 12 22 -9 27 112 104 162 103 14 0 15 -1 5 -5z m102 -10 c43
-17 126 -88 115 -99 -3 -4 0 -13 8 -21 16 -15 20 -43 8 -43 -5 1 -19 23 -33
51 -13 28 -32 55 -41 60 -10 5 -24 15 -32 23 -7 8 -34 21 -58 30 -24 8 -36 15
-27 16 10 0 37 -8 60 -17z m1487 -19 c3 -16 1 -17 -13 -5 -19 16 -21 34 -3 29
6 -3 14 -13 16 -24z m-4549 6 c0 -6 -13 -37 -30 -70 -16 -33 -30 -69 -30 -80
0 -12 -7 -20 -16 -20 -11 0 -14 5 -9 18 4 9 10 25 12 35 3 9 8 17 12 17 4 0 8
10 8 22 1 13 8 27 16 33 15 11 17 16 17 40 0 8 5 15 10 15 6 0 10 -5 10 -10z
m-857 -26 c-8 -21 -23 -17 -23 6 0 13 5 18 14 14 8 -3 12 -12 9 -20z m5425
-22 c6 -18 -15 -14 -22 4 -4 10 -1 14 6 12 6 -2 14 -10 16 -16z m-5448 -20 c0
-13 -28 -47 -34 -42 -10 10 6 50 20 50 8 0 14 -4 14 -8z m5484 -44 c18 -36 20
-58 6 -58 -9 0 -40 62 -40 81 0 20 20 7 34 -23z m-5514 -12 c0 -2 -3 -11 -6
-20 -9 -23 -24 -20 -24 4 0 11 7 20 15 20 8 0 15 -2 15 -4z m3690 -22 c0 -8
-4 -12 -10 -9 -5 3 -10 10 -10 16 0 5 5 9 10 9 6 0 10 -7 10 -16z m987 -19 c8
-26 8 -35 0 -36 -8 0 -8 -2 1 -6 14 -5 17 -33 3 -33 -9 0 -21 36 -27 83 -5 39
11 34 23 -8z m-557 -35 c0 -22 -4 -40 -10 -40 -5 0 -7 -7 -4 -15 4 -8 1 -15
-6 -15 -8 0 -10 8 -6 23 3 12 6 37 6 55 0 17 5 32 10 32 6 0 10 -18 10 -40z
m-440 5 c0 -14 -4 -25 -10 -25 -5 0 -10 11 -10 25 0 14 5 25 10 25 6 0 10 -11
10 -25z m707 -8 c2 -31 -12 -36 -20 -7 -3 11 0 20 6 20 7 0 6 5 -3 11 -13 9
-13 10 0 6 8 -2 16 -16 17 -30z m-4417 11 c0 -17 -18 -44 -24 -37 -8 7 5 49
15 49 5 0 9 -6 9 -12z m870 2 c0 -5 -4 -10 -9 -10 -6 0 -13 5 -16 10 -3 6 1
10 9 10 9 0 16 -4 16 -10z m4728 -54 c22 -43 29 -86 14 -86 -4 0 -16 24 -27
53 -10 28 -20 58 -23 65 -2 6 0 12 5 12 5 0 19 -20 31 -44z m-4738 24 c0 -5
-4 -10 -10 -10 -5 0 -10 5 -10 10 0 6 5 10 10 10 6 0 10 -4 10 -10z m286 -26
c-3 -9 -9 -27 -12 -40 -3 -13 -11 -24 -18 -24 -8 0 -8 -3 1 -8 8 -5 9 -13 3
-22 -5 -8 -12 -11 -16 -7 -10 10 24 117 38 117 5 0 7 -7 4 -16z m-1170 -10
c-3 -9 -6 -20 -6 -25 0 -5 -6 -9 -14 -9 -9 0 -12 8 -8 25 2 14 11 25 19 25 10
0 13 -6 9 -16z m874 1 c0 -8 -4 -15 -10 -15 -5 0 -10 7 -10 15 0 8 5 15 10 15
6 0 10 -7 10 -15z m2938 -103 c15 -13 45 -32 67 -43 22 -10 35 -19 29 -19 -15
0 -78 22 -84 29 -3 3 -14 11 -24 17 -11 6 -24 19 -30 30 -6 10 -14 21 -18 24
-12 9 -28 61 -22 71 3 5 17 -12 30 -38 14 -27 37 -59 52 -71z m942 99 c0 -6
-4 -13 -10 -16 -5 -3 -10 1 -10 9 0 9 5 16 10 16 6 0 10 -4 10 -9z m-290 -11
c0 -5 -4 -10 -10 -10 -5 0 -10 5 -10 10 0 6 5 10 10 10 6 0 10 -4 10 -10z
m-1632 -7 c-16 -2 -40 -2 -55 0 -16 2 -3 4 27 4 30 0 43 -2 28 -4z m-1968 -18
c0 -8 -4 -15 -10 -15 -5 0 -10 7 -10 15 0 8 5 15 10 15 6 0 10 -7 10 -15z
m1848 8 c-10 -2 -26 -2 -35 0 -10 3 -2 5 17 5 19 0 27 -2 18 -5z m220 0 c-10
-2 -26 -2 -35 0 -10 3 -2 5 17 5 19 0 27 -2 18 -5z m-295 -10 c-7 -2 -19 -2
-25 0 -7 3 -2 5 12 5 14 0 19 -2 13 -5z m431 -13 c5 -5 15 -6 22 -3 8 3 14 0
14 -6 0 -6 7 -8 15 -5 8 4 15 1 15 -5 0 -15 -3 -14 -95 14 -72 22 -75 24 -30
19 28 -4 54 -10 59 -14z m1406 5 c0 -8 -4 -15 -10 -15 -5 0 -10 7 -10 15 0 8
5 15 10 15 6 0 10 -7 10 -15z m290 0 c0 -8 -4 -15 -10 -15 -5 0 -10 7 -10 15
0 8 5 15 10 15 6 0 10 -7 10 -15z m-2215 -15 c-59 -22 -75 -24 -75 -9 0 6 7 9
15 5 8 -3 15 -1 15 5 0 6 7 9 15 5 8 -3 15 -2 15 2 0 4 15 8 33 9 28 1 26 -1
-18 -17z m1587 11 c-8 -4 -13 -12 -11 -16 4 -12 -33 -55 -47 -55 -8 0 -14 -4
-14 -10 0 -5 -17 -14 -37 -19 -55 -16 -63 -13 -23 7 59 29 100 56 100 68 0 13
21 34 35 34 5 0 4 -4 -3 -9z m-4164 -23 c-2 -12 -8 -23 -14 -25 -7 -2 -10 6
-7 22 6 30 26 34 21 3z m882 -13 c0 -8 -4 -15 -10 -15 -5 0 -10 7 -10 15 0 8
5 15 10 15 6 0 10 -7 10 -15z m1610 10 c0 -3 -39 -24 -87 -47 -90 -42 -110
-54 -200 -121 -29 -21 -58 -37 -64 -35 -13 4 81 78 100 78 6 0 11 4 11 9 0 11
97 64 190 104 38 17 50 20 50 12z m775 -33 c20 -5 95 -49 105 -61 3 -3 11 -7
18 -9 26 -5 65 -36 52 -40 -7 -3 -18 1 -24 9 -6 8 -18 15 -26 17 -8 2 -22 9
-30 17 -8 7 -54 31 -102 54 -86 40 -124 67 -50 35 20 -9 46 -19 57 -22z m1245
23 c0 -8 -4 -15 -10 -15 -5 0 -10 7 -10 15 0 8 5 15 10 15 6 0 10 -7 10 -15z
m290 -20 c0 -14 -4 -25 -10 -25 -5 0 -10 11 -10 25 0 14 5 25 10 25 6 0 10
-11 10 -25z m891 -1 c10 -28 5 -44 -10 -28 -5 5 -12 19 -16 32 -9 32 13 28 26
-4z m-4525 -21 c-3 -8 -6 -17 -6 -19 0 -2 -4 -4 -10 -4 -5 0 -10 11 -10 25 0
18 4 23 16 18 8 -3 13 -12 10 -20z m3349 -21 c-6 -16 -7 -16 -17 2 -8 14 -7
21 3 27 17 10 24 -4 14 -29z m-4540 6 c-4 -13 -11 -27 -16 -32 -15 -16 -20 0
-10 28 13 32 35 36 26 4z m895 -938 c0 -627 -3 -950 -10 -950 -7 0 -10 323
-10 950 0 627 3 950 10 950 7 0 10 -323 10 -950z m3940 0 c0 -613 -3 -930 -10
-930 -7 0 -10 317 -10 930 0 613 3 930 10 930 7 0 10 -317 10 -930z m-823 914
c-3 -3 -12 -4 -19 -1 -8 3 -5 6 6 6 11 1 17 -2 13 -5z m1733 -13 c0 -11 3 -26
6 -35 3 -9 1 -16 -5 -16 -7 0 -14 8 -17 18 -3 9 -10 25 -15 35 -7 13 -5 17 11
17 13 0 20 -7 20 -19z m-4565 -901 c0 -711 -3 -901 -12 -905 -10 -3 -13 182
-13 905 0 723 3 908 13 905 9 -4 12 -194 12 -905z m-1205 846 c0 -14 -5 -28
-11 -31 -15 -10 -18 -4 -12 28 7 34 23 36 23 3z m4580 -846 c0 -758 -2 -860
-15 -860 -13 0 -15 102 -15 860 0 758 2 860 15 860 13 0 15 -102 15 -860z
m-1050 842 c0 -5 11 -14 25 -20 14 -6 25 -16 25 -22 0 -16 -13 -11 -50 20 -24
22 -29 30 -17 30 9 0 17 -4 17 -8z m2262 -42 c5 -30 -3 -46 -16 -33 -9 10 -7
63 3 63 5 0 11 -14 13 -30z m-3612 -16 c0 -10 -70 -71 -75 -66 -6 7 55 72 67
72 4 0 8 -3 8 -6z m-2206 -31 c-7 -29 -21 -50 -28 -42 -9 10 7 69 20 69 11 0
13 -7 8 -27z m3023 11 c-7 -7 -229 -6 -236 2 -2 2 51 4 119 4 68 0 121 -3 117
-6z m-287 -20 c-25 -7 -49 -13 -55 -13 -18 1 59 27 80 28 11 0 0 -7 -25 -15z
m356 6 c14 -6 41 -12 58 -14 37 -5 187 -78 205 -100 17 -20 12 -20 -27 0 -18
8 -32 20 -32 25 0 6 -4 7 -10 4 -5 -3 -10 -1 -10 4 0 6 -8 11 -17 11 -10 0
-27 7 -37 15 -11 8 -28 15 -38 15 -10 0 -18 5 -18 11 0 5 -4 8 -8 5 -5 -3 -35
4 -68 14 -32 10 -51 19 -42 19 9 1 29 -4 44 -9z m-426 -21 c0 -5 -4 -7 -10 -4
-5 3 -10 1 -10 -4 0 -6 -8 -11 -17 -11 -10 0 -38 -11 -61 -25 -24 -14 -48 -22
-53 -19 -5 3 -9 -2 -9 -10 0 -9 -5 -16 -12 -16 -6 0 -22 -9 -34 -21 -12 -11
-30 -19 -41 -16 -17 4 -17 4 2 12 11 5 36 21 55 37 19 15 38 28 42 28 5 0 36
13 71 30 68 33 77 35 77 19z m3183 -36 c5 -24 3 -33 -7 -33 -14 0 -28 57 -19
73 8 13 20 -5 26 -40z m-2083 -69 c33 -47 58 -89 55 -95 -4 -5 -1 -9 4 -9 10
0 71 -113 71 -132 0 -25 -21 0 -49 60 -51 108 -90 169 -150 235 -20 21 -21 27
-8 27 9 0 43 -38 77 -86z m-1650 68 c0 -5 -9 -17 -20 -27 -16 -14 -20 -15 -20
-4 0 16 19 39 32 39 4 0 8 -4 8 -8z m-2140 -48 c0 -13 -4 -25 -9 -28 -5 -3
-12 -36 -16 -73 -8 -73 -13 -93 -25 -93 -10 0 0 92 11 105 5 5 9 32 9 60 0 39
4 52 15 52 9 0 15 -10 15 -23z m2084 -29 c-15 -22 -34 -34 -34 -20 0 14 26 45
38 45 9 0 8 -7 -4 -25z m1347 -16 c6 -12 7 -19 2 -17 -4 3 -16 8 -26 11 -10 4
-15 11 -12 17 10 16 23 12 36 -11z m2461 -23 c3 -24 0 -32 -9 -29 -7 3 -13 21
-13 40 0 43 16 35 22 -11z m-3512 -53 c-35 -38 -71 -75 -80 -83 -9 -9 -15 -20
-13 -26 4 -11 -26 -29 -34 -21 -2 2 10 21 27 42 16 21 30 42 30 46 0 5 5 8 12
7 7 -2 12 3 13 10 0 18 75 92 93 92 9 0 -11 -28 -48 -67z m-330 46 c0 -6 -13
-30 -30 -54 -16 -24 -30 -48 -30 -54 0 -17 -53 -121 -62 -121 -11 0 -10 4 4
35 6 14 15 25 19 25 5 0 6 7 3 15 -3 8 9 40 28 72 18 32 36 66 40 75 8 20 28
25 28 7z m1434 -15 c17 -17 21 -34 8 -34 -5 0 -19 11 -32 25 -19 20 -20 25 -7
25 8 0 23 -7 31 -16z m65 -75 c3 -8 17 -29 31 -47 14 -19 25 -37 25 -40 1 -4
6 -17 13 -29 8 -14 9 -23 3 -23 -9 0 -26 27 -66 101 -5 11 -13 19 -17 19 -4 0
-12 9 -18 19 -8 16 -7 19 7 17 9 -2 19 -9 22 -17z m-1289 -104 c0 -12 -24 -55
-32 -55 -4 0 -7 -3 -7 -7 5 -28 -3 -53 -16 -53 -8 0 -15 2 -15 5 0 13 55 115
62 115 4 0 8 -2 8 -5z m1674 -21 c4 -10 1 -14 -6 -12 -15 5 -23 28 -10 28 5 0
13 -7 16 -16z m-2004 -49 c0 -16 -6 -25 -16 -25 -11 0 -14 5 -10 16 3 9 6 20
6 25 0 5 5 9 10 9 6 0 10 -11 10 -25z m1720 6 c14 -26 13 -31 -6 -31 -11 0
-15 6 -11 20 3 10 0 21 -7 24 -8 3 -7 5 1 5 7 1 17 -8 23 -18z m303 -11 c3
-13 0 -20 -9 -20 -8 0 -14 10 -14 26 0 28 15 25 23 -6z m-2033 -40 c0 -5 -4
-10 -9 -10 -6 0 -13 5 -16 10 -3 6 1 10 9 10 9 0 16 -4 16 -10z m1747 -10 c1
-11 -2 -20 -6 -20 -5 0 -11 9 -14 20 -3 12 0 20 7 20 6 0 12 -9 13 -20z m295
5 c0 -5 -5 -11 -11 -13 -6 -2 -11 4 -11 13 0 9 5 15 11 13 6 -2 11 -8 11 -13z
m-1760 -30 c-2 -14 -8 -25 -13 -25 -5 0 -6 -7 -3 -15 4 -8 1 -15 -5 -15 -14 0
-14 9 0 49 13 37 28 42 21 6z m-292 5 c0 -5 -4 -10 -10 -10 -5 0 -10 5 -10 10
0 6 5 10 10 10 6 0 10 -4 10 -10z m2062 -15 c0 -5 -5 -11 -11 -13 -6 -2 -11 4
-11 13 0 9 5 15 11 13 6 -2 11 -8 11 -13z m-292 -5 c0 -5 -4 -10 -10 -10 -5 0
-10 5 -10 10 0 6 5 10 10 10 6 0 10 -4 10 -10z m-1780 -31 c0 -11 -4 -17 -10
-14 -5 3 -10 13 -10 21 0 8 5 14 10 14 6 0 10 -9 10 -21z m1790 -4 c0 -8 -4
-15 -10 -15 -5 0 -10 7 -10 15 0 8 5 15 10 15 6 0 10 -7 10 -15z m290 0 c0 -8
-4 -15 -10 -15 -5 0 -10 7 -10 15 0 8 5 15 10 15 6 0 10 -7 10 -15z m-1800
-30 c0 -8 -4 -15 -10 -15 -5 0 -10 7 -10 15 0 8 5 15 10 15 6 0 10 -7 10 -15z
m1520 -9 c0 -8 -4 -18 -10 -21 -5 -3 -10 3 -10 14 0 12 5 21 10 21 6 0 10 -6
10 -14z m-1810 -17 c0 -11 -4 -17 -10 -14 -5 3 -10 13 -10 21 0 8 5 14 10 14
6 0 10 -9 10 -21z m2100 -34 c0 -19 -4 -35 -10 -35 -5 0 -10 16 -10 35 0 19 5
35 10 35 6 0 10 -16 10 -35z m-1820 -75 c0 -55 0 -103 1 -107 0 -4 -3 -9 -8
-10 -5 -2 -9 46 -9 107 0 60 4 110 8 110 4 0 8 -45 8 -100z m1540 -10 c0 -53
-4 -90 -10 -90 -6 0 -10 37 -10 90 0 53 4 90 10 90 6 0 10 -37 10 -90z m-1830
0 c0 -27 -4 -50 -10 -50 -5 0 -10 23 -10 50 0 28 5 50 10 50 6 0 10 -22 10
-50z m2110 -85 c0 -19 -4 -35 -10 -35 -5 0 -10 16 -10 35 0 19 5 35 10 35 6 0
10 -16 10 -35z m-2100 -30 c0 -14 -4 -25 -10 -25 -5 0 -10 11 -10 25 0 14 5
25 10 25 6 0 10 -11 10 -25z m1810 -16 c0 -5 -4 -9 -10 -9 -5 0 -10 7 -10 16
0 8 5 12 10 9 6 -3 10 -10 10 -16z m-1520 -14 c0 -8 -4 -15 -10 -15 -5 0 -10
7 -10 15 0 8 5 15 10 15 6 0 10 -7 10 -15z m-284 -52 c-11 -11 -19 6 -11 24 8
17 8 17 12 0 3 -10 2 -21 -1 -24z m1794 22 c0 -8 -4 -15 -10 -15 -5 0 -10 7
-10 15 0 8 5 15 10 15 6 0 10 -7 10 -15z m290 0 c0 -8 -4 -15 -10 -15 -5 0
-10 7 -10 15 0 8 5 15 10 15 6 0 10 -7 10 -15z m-1793 -9 c-3 -8 -2 -16 2 -18
5 -2 12 -13 15 -25 11 -36 -11 -27 -23 8 -14 40 -14 49 0 49 6 0 9 -6 6 -14z
m1490 -33 c-3 -10 -8 -30 -11 -45 -4 -16 -11 -28 -16 -28 -12 0 -13 23 -2 34
7 8 8 13 11 41 0 8 6 15 12 15 6 0 8 -8 6 -17z m293 2 c0 -8 -6 -15 -12 -15
-9 0 -8 -3 2 -10 11 -7 12 -12 4 -20 -16 -16 -26 3 -18 35 7 27 24 35 24 10z
m-2060 -10 c0 -8 -4 -15 -9 -15 -5 0 -11 7 -15 15 -3 9 0 15 9 15 8 0 15 -7
15 -15z m10 -35 c0 -5 -4 -10 -10 -10 -5 0 -10 5 -10 10 0 6 5 10 10 10 6 0
10 -4 10 -10z m301 -22 c1 -13 1 -26 0 -30 0 -5 3 -8 9 -8 5 0 17 -14 26 -31
27 -53 -8 -29 -38 27 -32 57 -33 64 -13 64 9 0 16 -10 16 -22z m-291 -8 c0 -5
-7 -10 -15 -10 -8 0 -15 5 -15 10 0 6 7 10 15 10 8 0 15 -4 15 -10z m2013 -35
c-8 -25 -19 -45 -25 -45 -6 0 -7 7 -3 18 4 9 10 29 13 45 2 15 10 27 18 27 10
0 10 -9 -3 -45z m-293 22 c0 -1 -14 -29 -31 -62 -34 -66 -56 -95 -73 -95 -6 0
-2 7 8 15 11 8 17 15 13 15 -9 0 42 93 59 106 8 6 11 14 7 17 -3 4 -1 7 5 7 7
0 12 -1 12 -3z m-1720 -17 c0 -5 -4 -10 -10 -10 -5 0 -10 5 -10 10 0 6 5 10
10 10 6 0 10 -4 10 -10z m53 -117 c20 -43 48 -96 62 -118 14 -22 28 -46 31
-54 4 -7 24 -32 45 -55 22 -23 33 -43 27 -45 -6 -2 -20 7 -30 20 -10 13 -23
30 -29 37 -30 36 -78 116 -73 124 3 4 1 8 -4 8 -14 0 -64 88 -59 103 2 6 -2
18 -10 25 -15 15 -17 32 -4 32 4 0 24 -35 44 -77z m1937 49 c0 -20 -75 -161
-118 -221 -78 -110 -272 -291 -312 -291 -5 0 -10 -4 -10 -8 0 -10 -69 -44 -84
-42 -5 1 -12 -2 -15 -8 -9 -14 -171 -73 -181 -67 -6 4 -10 1 -10 -5 0 -6 -4
-8 -10 -5 -5 3 -15 3 -22 -1 -7 -4 -28 -9 -48 -11 -22 -1 -6 6 45 22 44 13 86
24 94 25 22 0 173 71 207 97 17 12 34 23 38 23 9 0 115 82 138 107 9 10 23 23
30 29 27 23 99 108 115 135 10 16 21 29 25 29 4 0 8 5 8 11 0 6 15 34 33 61
17 28 32 53 32 57 1 30 45 92 45 63z m-1639 -14 c1 -7 1 -16 0 -20 0 -5 6 -8
14 -8 8 0 15 -4 15 -10 0 -19 -19 -10 -40 20 -18 25 -19 30 -6 30 9 0 17 -6
17 -12z m-2304 -130 c21 -126 22 -138 12 -143 -9 -6 -15 15 -23 80 -3 22 -9
63 -14 90 -9 47 -7 73 5 61 3 -3 12 -43 20 -88z m2363 53 c8 -16 7 -19 -8 -17
-9 2 -18 10 -20 19 -5 23 15 21 28 -2z m1210 0 c0 -8 -44 -41 -55 -41 -3 0 2
11 12 25 18 24 43 34 43 16z m-1160 -56 c21 -22 21 -25 5 -25 -10 0 -24 8 -31
18 -29 38 -9 44 26 7z m3506 -11 c-3 -9 -6 -29 -6 -45 0 -18 -5 -29 -14 -29
-8 0 -13 7 -11 18 12 60 17 72 26 72 6 0 8 -7 5 -16z m-2453 -39 c-10 -13 -22
-25 -28 -25 -5 0 -23 -12 -40 -26 -45 -38 -183 -100 -240 -107 -41 -5 -45 -4
-20 3 17 6 37 12 45 13 59 13 204 93 260 144 33 30 45 29 23 -2z m-992 -6 c11
-5 17 -14 14 -20 -10 -15 -23 -11 -35 11 -12 23 -7 25 21 9z m53 -38 c9 -14
114 -71 131 -71 8 0 15 -4 15 -8 0 -5 6 -9 13 -9 22 -2 163 -42 147 -42 -8 -1
-45 5 -81 13 -100 21 -305 126 -246 126 9 0 18 -4 21 -9z m3365 -74 c-11 -42
-32 -41 -23 1 10 49 14 56 24 46 6 -6 6 -23 -1 -47z m-5846 -39 c5 -37 3 -43
-13 -33 -7 4 -10 18 -7 31 2 13 0 21 -4 18 -5 -3 -9 0 -9 5 0 27 28 8 33 -21z
m3005 -22 c3 -3 -42 -6 -99 -6 -57 0 -99 4 -92 8 13 8 182 6 191 -2z m45 7
c-7 -2 -19 -2 -25 0 -7 3 -2 5 12 5 14 0 19 -2 13 -5z m2771 -30 c-8 -35 -13
-43 -24 -43 -7 0 -5 22 6 58 7 25 24 12 18 -15z m-3550 -43 c35 -27 68 -50 73
-50 5 0 18 -9 30 -19 24 -22 163 -88 213 -101 111 -28 172 -49 140 -46 -20 1
-41 6 -49 10 -7 4 -15 5 -18 2 -3 -3 -12 -1 -20 5 -7 6 -13 9 -13 5 0 -9 -105
30 -190 71 -69 33 -161 91 -185 117 -6 6 -19 16 -30 22 -18 10 -33 34 -21 34
4 0 35 -22 70 -50z m-2243 -13 c5 -19 3 -27 -5 -27 -7 0 -13 6 -13 13 0 6 -4
20 -8 31 -6 14 -4 17 5 14 8 -2 17 -16 21 -31z m5775 -23 c-3 -9 -6 -21 -6
-28 0 -7 -7 -13 -15 -13 -10 0 -14 6 -10 14 3 8 5 21 5 29 0 8 7 14 16 14 11
0 14 -5 10 -16z m-5752 -60 c12 -48 -14 -44 -29 4 -4 16 -2 22 8 22 8 0 18
-12 21 -26z m4546 -19 c0 -18 -4 -23 -15 -19 -16 6 -20 26 -8 37 13 14 23 6
23 -18z m-3356 -1 c8 -21 8 -21 -9 -28 -11 -4 -15 1 -15 19 0 28 15 33 24 9z
m4517 -37 c-16 -16 -20 -5 -8 23 9 22 11 23 14 6 3 -10 0 -23 -6 -29z m-881 8
c0 -14 -4 -25 -10 -25 -5 0 -10 11 -10 25 0 14 5 25 10 25 6 0 10 -11 10 -25z
m-4799 -28 c5 -20 4 -27 -7 -27 -8 0 -14 6 -14 14 0 8 -3 22 -7 32 -4 11 -2
15 7 12 8 -2 17 -16 21 -31z m879 8 c0 -8 -4 -15 -10 -15 -5 0 -10 7 -10 15 0
8 5 15 10 15 6 0 10 -7 10 -15z m3630 0 c0 -8 -4 -15 -10 -15 -5 0 -10 7 -10
15 0 8 5 15 10 15 6 0 10 -7 10 -15z m-3340 -10 c0 -8 -4 -15 -10 -15 -5 0
-10 7 -10 15 0 8 5 15 10 15 6 0 10 -7 10 -15z m3620 -25 c0 -11 -4 -20 -10
-20 -5 0 -10 9 -10 20 0 11 5 20 10 20 6 0 10 -9 10 -20z m-3900 1 c0 -5 3
-23 6 -40 5 -21 3 -31 -6 -31 -7 0 -10 8 -7 20 3 11 1 20 -4 20 -5 0 -9 9 -9
20 0 11 5 20 10 20 6 0 10 -4 10 -9z m3610 -6 c0 -8 -4 -15 -10 -15 -5 0 -10
7 -10 15 0 8 5 15 10 15 6 0 10 -7 10 -15z m1165 -10 c-3 -30 -36 -95 -47 -95
-10 0 -10 0 3 41 23 74 50 106 44 54z m-4485 5 c0 -5 -4 -10 -10 -10 -5 0 -10
5 -10 10 0 6 5 10 10 10 6 0 10 -4 10 -10z m-1153 -44 c-2 -5 -8 -11 -14 -13
-11 -4 -24 43 -14 52 7 8 32 -26 28 -39z m2746 27 c-13 -2 -33 -2 -45 0 -13 2
-3 4 22 4 25 0 35 -2 23 -4z m165 0 c-10 -2 -28 -2 -40 0 -13 2 -5 4 17 4 22
1 32 -1 23 -4z m-1737 -48 c11 -31 13 -46 5 -49 -6 -2 -4 -5 4 -5 8 -1 24 -22
34 -49 11 -26 22 -49 25 -52 4 -3 19 -25 35 -50 16 -25 66 -81 110 -125 77
-76 114 -103 196 -143 19 -9 41 -23 48 -30 8 -7 18 -10 23 -7 5 4 9 2 9 -4 0
-6 7 -8 15 -5 8 4 15 1 15 -5 0 -6 -5 -11 -10 -11 -18 0 -144 63 -202 102 -62
42 -178 149 -178 166 0 6 -4 12 -8 14 -25 10 -118 166 -133 223 -4 17 -11 40
-14 53 -13 42 10 22 26 -23z m3285 29 c-3 -9 -6 -18 -6 -20 0 -2 -4 -4 -9 -4
-5 0 -7 9 -4 20 3 11 10 20 15 20 6 0 7 -7 4 -16z m294 -5 c0 -5 -4 -9 -10 -9
-5 0 -10 7 -10 16 0 8 5 12 10 9 6 -3 10 -10 10 -16z m-10 -35 c0 -8 -4 -12
-10 -9 -5 3 -10 10 -10 16 0 5 5 9 10 9 6 0 10 -7 10 -16z m-4719 -22 c6 -16
5 -22 -5 -22 -8 0 -16 11 -19 25 -5 31 13 28 24 -3z m859 18 c0 -5 -4 -10 -10
-10 -5 0 -10 5 -10 10 0 6 5 10 10 10 6 0 10 -4 10 -10z m3560 -15 c0 -13 -8
-29 -17 -34 -10 -6 -14 -11 -10 -11 10 0 -11 -40 -22 -40 -10 0 31 110 42 110
4 0 7 -11 7 -25z m283 -51 c-8 -24 -19 -44 -25 -44 -6 0 -7 7 -3 18 4 9 7 25
7 35 0 9 3 17 8 17 5 0 7 7 4 15 -4 11 -2 13 9 9 14 -5 14 -10 0 -50z m-3833
36 c0 -5 -4 -10 -10 -10 -5 0 -10 5 -10 10 0 6 5 10 10 10 6 0 10 -4 10 -10z
m4692 -35 c-2 -19 -8 -35 -13 -35 -5 0 -9 -7 -9 -15 0 -8 -7 -15 -15 -15 -19
0 -19 2 6 55 25 54 36 58 31 10z m-5538 -1 c7 -19 -2 -37 -15 -29 -12 8 -12
45 0 45 5 0 12 -7 15 -16z m856 -4 c0 -11 -5 -20 -12 -20 -6 0 -8 3 -5 7 4 3
2 12 -4 20 -9 10 -8 13 5 13 9 0 16 -8 16 -20z m29 -77 c12 -27 21 -50 19 -53
-1 -3 10 -23 25 -44 26 -40 29 -55 7 -41 -16 10 -50 87 -44 97 3 4 1 8 -5 8
-10 0 -27 38 -23 53 1 4 -2 7 -8 7 -5 0 -10 5 -10 10 0 24 18 6 39 -37z m-859
18 c13 -26 13 -31 -5 -31 -8 0 -15 4 -15 9 0 5 -3 16 -6 25 -9 23 13 20 26 -3z
m4313 -4 c-3 -13 -11 -24 -19 -24 -17 0 -17 3 -4 28 15 26 28 24 23 -4z m311
-2 c-6 -16 -24 -21 -24 -7 0 11 11 22 21 22 5 0 6 -7 3 -15z m846 -12 c0 -5
-18 -43 -40 -86 -22 -42 -40 -84 -40 -92 0 -16 -16 -20 -24 -6 -7 11 52 127
64 124 4 -1 6 6 3 17 -3 12 1 22 11 26 9 3 13 10 10 15 -3 5 0 9 5 9 6 0 11
-3 11 -7z m-860 -25 c0 -14 -69 -138 -86 -155 -34 -35 -24 1 18 63 15 23 28
49 28 58 0 9 7 19 15 22 8 4 12 10 9 15 -3 5 0 9 5 9 6 0 11 -5 11 -12z
m-4582 -21 c5 -24 -15 -21 -21 4 -3 13 -1 19 6 16 7 -2 13 -11 15 -20z m4236
-17 c-15 -22 -31 -40 -35 -40 -5 0 -9 -5 -9 -11 0 -13 -87 -99 -100 -99 -16 0
-12 6 43 61 30 30 66 71 82 92 37 50 52 48 19 -3z m-4211 -30 c3 -11 1 -20 -4
-20 -4 0 -13 9 -19 20 -8 16 -8 20 3 20 8 0 17 -9 20 -20z m27 -50 c7 -13 7
-20 1 -20 -6 0 -15 9 -21 20 -7 13 -7 20 -1 20 6 0 15 -9 21 -20z m870 -26 c0
-7 14 -29 30 -47 17 -19 30 -40 30 -46 0 -6 5 -11 10 -11 6 0 10 -4 10 -9 0
-5 29 -37 65 -72 64 -61 76 -81 36 -60 -30 17 -163 170 -156 181 4 6 0 10 -8
10 -7 0 -20 12 -28 28 -7 15 -15 30 -16 33 -2 3 3 6 12 6 8 0 15 -6 15 -13z
m-831 -44 c17 -33 18 -40 6 -40 -8 0 -15 8 -15 18 0 9 -9 23 -20 30 -23 14
-26 32 -6 32 8 0 23 -18 35 -40z m5247 8 c-3 -7 -9 -21 -12 -30 -4 -10 -10
-18 -15 -18 -5 0 -9 -6 -9 -14 0 -8 -7 -17 -16 -20 -8 -3 -13 -2 -12 2 2 4 10
21 18 37 19 40 30 55 42 55 5 0 7 -6 4 -12z m-862 -13 c-4 -8 -9 -15 -13 -15
-3 0 -17 -18 -31 -40 -13 -22 -30 -40 -37 -40 -20 0 -16 18 7 32 11 7 20 18
20 24 0 13 38 54 50 54 5 0 7 -7 4 -15z m-394 -9 c0 -16 -233 -146 -261 -146
-22 0 -6 19 22 25 32 7 194 99 204 115 6 10 35 14 35 6z m-3946 -62 c22 -40
81 -129 89 -132 4 -2 7 -10 7 -17 0 -7 3 -15 8 -17 4 -1 17 -18 30 -35 18 -26
19 -33 7 -33 -8 0 -15 7 -15 15 0 8 -6 15 -14 15 -7 0 -20 15 -27 33 -7 17
-18 37 -24 42 -24 22 -65 85 -65 100 0 9 -4 14 -9 11 -9 -6 -21 15 -21 36 0
15 22 4 34 -18z m5132 -36 c-9 -13 -19 -30 -23 -38 -14 -33 -45 -70 -59 -70
-18 0 66 128 85 129 10 1 10 -4 -3 -21z m-922 -47 c-22 -21 -43 -37 -47 -34
-12 7 53 73 71 73 8 0 -3 -17 -24 -39z m-2603 -25 c5 3 17 0 26 -5 16 -9 15
-10 -6 -11 -29 0 -143 29 -154 40 -5 4 21 -1 58 -11 37 -10 72 -16 76 -13z
m2054 25 c-12 -11 -124 -41 -155 -41 -12 0 -19 4 -14 11 3 6 16 8 28 6 11 -3
48 3 81 13 33 10 62 18 65 19 2 0 0 -3 -5 -8z m-230 -41 c4 -7 -288 -10 -870
-10 -582 0 -874 3 -870 10 9 14 1731 14 1740 0z m715 -20 c0 -5 -4 -10 -8 -10
-8 0 -29 -15 -80 -57 -15 -13 -32 -23 -39 -23 -6 0 -13 -4 -15 -8 -4 -10 -138
-86 -138 -78 0 3 -23 -6 -51 -21 -28 -14 -62 -26 -75 -27 -13 0 -24 -4 -24 -7
0 -3 -6 -6 -12 -6 -7 0 -29 -3 -48 -6 -25 -5 -19 -1 20 14 30 11 66 22 80 24
14 1 52 17 83 34 32 17 62 31 68 31 6 0 30 14 54 30 24 17 48 30 52 30 5 0 22
14 38 30 16 17 34 30 41 30 6 0 14 7 18 15 6 17 36 21 36 5z m-3120 -16 c0
-14 -3 -14 -15 -4 -8 7 -15 14 -15 16 0 2 7 4 15 4 8 0 15 -7 15 -16z m4020
-3 c0 -12 -20 -25 -27 -18 -7 7 6 27 18 27 5 0 9 -4 9 -9z m-3956 -40 c11 -12
23 -21 28 -21 5 0 29 -13 53 -30 24 -16 47 -30 52 -30 4 0 35 -13 68 -29 33
-16 96 -41 140 -55 73 -23 72 -25 -8 -10 -98 17 -385 168 -387 202 0 16 28 2
54 -27z m3918 -14 c-12 -13 -22 -30 -22 -37 0 -10 -3 -11 -11 -3 -14 14 16 63
39 63 12 0 11 -5 -6 -23z m-4823 -53 c34 -43 25 -65 -9 -24 -16 19 -30 38 -30
43 0 15 19 6 39 -19z m4781 -4 c0 -5 -17 -27 -38 -50 -22 -22 -37 -42 -35 -44
3 -2 0 -7 -6 -11 -24 -14 -9 25 27 69 36 45 52 56 52 36z m-4691 -109 c17 -21
27 -41 24 -45 -4 -4 0 -4 9 -1 11 5 18 -1 24 -17 4 -13 19 -33 33 -45 21 -19
23 -23 9 -23 -10 0 -18 5 -18 10 0 6 -7 10 -15 10 -8 0 -15 6 -15 14 0 8 -22
36 -50 64 -47 48 -61 72 -41 72 5 0 23 -17 40 -39z m1274 -18 c-7 -2 -19 -2
-25 0 -7 3 -2 5 12 5 14 0 19 -2 13 -5z m2042 -3 c-16 -4 -41 -8 -55 -8 -22 0
-22 1 5 8 17 4 41 8 55 8 22 0 22 -1 -5 -8z m-1982 -7 c-7 -2 -21 -2 -30 0
-10 3 -4 5 12 5 17 0 24 -2 18 -5z m1882 -3 c-4 -7 -325 -10 -931 -10 -609 0
-924 3 -924 10 0 7 317 10 931 10 617 0 928 -3 924 -10z m1365 6 c0 -2 -7 -7
-16 -10 -8 -3 -12 -2 -9 4 6 10 25 14 25 6z m-43 -49 c-18 -34 -214 -227 -231
-227 -8 0 -21 -8 -28 -18 -7 -10 -20 -22 -28 -27 -9 -5 -7 1 5 16 31 37 49 49
65 43 8 -3 11 -2 7 2 -9 10 163 185 175 178 4 -3 5 1 2 9 -3 9 4 21 15 29 12
8 18 18 13 23 -4 5 -2 5 5 1 9 -5 9 -12 0 -29z m-4394 -87 c17 -20 11 -25 -17
-14 -16 6 -23 34 -8 34 4 0 15 -9 25 -20z m49 -50 c11 -12 13 -22 7 -26 -6 -3
-17 2 -24 12 -27 36 -12 48 17 14z m48 -50 c0 -5 -4 -10 -10 -10 -5 0 -10 5
-10 10 0 6 5 10 10 10 6 0 10 -4 10 -10z m77 -60 c6 -8 9 -18 7 -21 -2 -4 4
-6 13 -5 9 0 18 -5 20 -11 9 -24 -20 -13 -51 20 -17 18 -39 36 -49 40 -10 4
-15 11 -12 17 7 11 52 -14 72 -40z m3913 -43 c0 -15 -91 -87 -110 -87 -16 0
71 79 88 80 6 0 12 5 12 10 0 6 2 10 5 10 3 0 5 -6 5 -13z m-3837 -21 c4 -10
0 -12 -15 -8 -15 4 -17 7 -6 13 17 11 15 11 21 -5z m59 -49 c19 -13 47 -35 62
-48 15 -13 31 -24 34 -24 13 0 32 -16 32 -26 0 -18 -27 -8 -55 21 -16 17 -34
30 -39 30 -14 1 -92 70 -79 70 6 0 26 -11 45 -23z m3653 -37 c3 -5 1 -10 -5
-10 -7 0 -29 -13 -50 -30 -21 -16 -41 -30 -44 -30 -13 0 -5 21 10 27 9 3 27
17 40 29 25 26 39 30 49 14z m-3438 -128 c-20 -4 -77 37 -77 56 0 8 16 1 46
-20 31 -22 41 -34 31 -36z m3297 22 c-16 -13 -33 -23 -37 -24 -5 0 -29 -14
-53 -31 -25 -17 -48 -29 -51 -26 -3 3 -14 -2 -24 -12 -22 -21 -195 -111 -213
-111 -6 0 -27 -11 -46 -24 -45 -30 -80 -41 -80 -26 0 7 10 14 21 17 12 4 42
17 66 30 25 13 49 21 54 18 5 -4 9 -2 9 4 0 5 24 21 53 35 28 14 76 39 105 56
30 17 58 28 63 25 5 -4 9 1 9 9 0 8 10 18 23 22 12 4 45 24 72 45 52 40 78 34
29 -7z m-3236 -50 c18 -8 32 -20 32 -25 0 -16 -21 -10 -52 16 -34 29 -26 32
20 9z m85 -52 c9 -8 17 -12 17 -7 0 4 7 1 16 -6 10 -8 29 -19 43 -26 14 -6 20
-12 13 -12 -18 -1 -102 40 -102 50 0 5 -7 9 -15 9 -8 0 -15 5 -15 11 0 11 15
4 43 -19z m142 -72 c3 -5 -1 -10 -9 -10 -8 0 -18 5 -21 10 -3 6 1 10 9 10 8 0
18 -4 21 -10z m55 -26 c0 -2 -9 -4 -21 -4 -11 0 -18 4 -14 10 5 8 35 3 35 -6z
m55 -24 c3 -5 15 -10 25 -10 20 0 36 -17 26 -27 -6 -6 -96 34 -96 43 0 9 39 4
45 -6z m188 -75 c25 -10 21 -28 -5 -19 -41 12 -118 49 -118 56 0 6 65 -14 123
-37z m2183 30 c-11 -8 -26 -15 -33 -15 -7 0 -13 -4 -13 -9 0 -5 -10 -11 -22
-14 -13 -2 -31 -8 -40 -12 -11 -4 -18 -3 -18 4 0 6 6 11 14 11 8 0 16 3 18 8
2 4 26 15 53 24 63 20 64 20 41 3z m-2091 -67 c7 -7 1 -8 -20 -4 -16 4 -34 12
-40 18 -7 7 -1 8 20 4 17 -4 35 -12 40 -18z m1941 13 c-6 -9 -56 -22 -56 -14
0 4 40 21 53 22 5 1 6 -3 3 -8z m-1875 -31 c10 0 21 -5 25 -11 4 -8 -4 -9 -27
-4 -43 9 -51 14 -43 27 4 6 10 6 17 -1 6 -6 19 -11 28 -11z m1802 0 c-9 -9
-73 -22 -73 -15 0 8 65 32 73 27 5 -2 5 -8 0 -12z m-85 -25 c-2 -1 -21 -6 -43
-9 -26 -5 -37 -4 -30 2 11 11 55 20 68 14 5 -2 7 -5 5 -7z m-1603 -6 c5 -7 -5
-8 -32 -3 -51 9 -54 14 -10 14 20 0 39 -5 42 -11z m104 -25 c10 -9 -6 -11 -41
-6 -21 2 -38 8 -38 14 0 8 68 1 79 -8z m1396 7 c-14 -13 -93 -25 -80 -13 6 6
21 12 35 15 44 8 54 7 45 -2z m-110 -32 c-4 -5 -27 -9 -52 -9 -53 0 -51 10 4
20 41 7 57 4 48 -11z m-1170 1 c4 -6 -10 -10 -34 -10 -22 0 -43 5 -46 10 -4 6
10 10 34 10 22 0 43 -4 46 -10z m205 -30 c56 -8 51 -8 -35 -4 -55 3 -106 10
-115 14 -15 9 26 7 150 -10z m820 11 c-8 -5 -58 -12 -110 -14 l-95 -6 90 13
c118 17 135 18 115 7z"/>
<path d="M5993 3310 c0 -25 2 -35 4 -22 2 12 2 32 0 45 -2 12 -4 2 -4 -23z"/>
</g>
</svg>
