<svg width="122" height="62" viewBox="0 0 122 62" fill="none" xmlns="http://www.w3.org/2000/svg">
<path d="M3.14276 35.8828H6.5867V52.7695H3.14276V35.8828Z" fill="#9499A6"/>
<path d="M8.58414 46.9837C8.58186 45.7709 8.93946 44.5845 9.61167 43.5748C10.2839 42.5652 11.2405 41.7777 12.3605 41.312C13.4804 40.8462 14.7133 40.7232 15.9032 40.9584C17.0931 41.1937 18.1865 41.7766 19.0449 42.6335C19.9034 43.4903 20.4884 44.5826 20.7258 45.7721C20.9634 46.9615 20.8427 48.1947 20.379 49.3156C19.9153 50.4363 19.1296 51.3944 18.1212 52.0685C17.1129 52.7427 15.9273 53.1024 14.7144 53.1024C13.9077 53.1117 13.1074 52.9598 12.3602 52.6556C11.6131 52.3516 10.9341 51.9014 10.3632 51.3315C9.79226 50.7617 9.34082 50.0836 9.03533 49.3369C8.72984 48.5904 8.57644 47.7904 8.58414 46.9837ZM17.3776 46.9837C17.3641 46.4601 17.1965 45.9521 16.8957 45.5233C16.5949 45.0944 16.1744 44.7639 15.6867 44.5728C15.199 44.3817 14.6658 44.3388 14.1538 44.4492C13.6418 44.5595 13.1738 44.8185 12.8081 45.1935C12.4425 45.5686 12.1956 46.0432 12.0983 46.5579C12.001 47.0725 12.0576 47.6045 12.261 48.0871C12.4645 48.5697 12.8058 48.9817 13.2421 49.2714C13.6785 49.5611 14.1906 49.7158 14.7144 49.7159C15.0727 49.726 15.4292 49.6617 15.7615 49.527C16.0937 49.3923 16.3945 49.1902 16.6448 48.9335C16.895 48.6767 17.0894 48.371 17.2154 48.0354C17.3416 47.6998 17.3968 47.3418 17.3776 46.9837Z" fill="#9499A6"/>
<path d="M34.6891 41.1979V52.1955C34.6891 56.0872 31.647 57.7288 28.5704 57.7288C27.4886 57.8093 26.4054 57.5905 25.4396 57.0964C24.4737 56.6024 23.6625 55.852 23.0946 54.9278L26.0564 53.2173C26.2914 53.6909 26.6633 54.0832 27.1238 54.3431C27.5843 54.6031 28.1123 54.7188 28.6394 54.6751C28.9861 54.733 29.3416 54.7104 29.6783 54.609C30.015 54.5077 30.3239 54.3305 30.5813 54.0909C30.8385 53.8513 31.0374 53.5557 31.1625 53.2271C31.2876 52.8985 31.3355 52.5456 31.3026 52.1955V51.1279C30.8978 51.6261 30.3811 52.0218 29.7948 52.283C29.2084 52.5443 28.5687 52.6638 27.9276 52.6318C26.3687 52.6318 24.8738 52.0125 23.7714 50.9103C22.6691 49.808 22.0499 48.313 22.0499 46.7541C22.0499 45.1952 22.6691 43.7003 23.7714 42.598C24.8738 41.4958 26.3687 40.8765 27.9276 40.8765C28.5684 40.8472 29.2071 40.9679 29.7931 41.2289C30.379 41.4901 30.8959 41.8843 31.3026 42.3803V41.2323L34.6891 41.1979ZM31.3026 46.7541C31.3256 46.1959 31.1809 45.6434 30.8874 45.1679C30.5938 44.6924 30.1648 44.3155 29.6554 44.0859C29.1461 43.8561 28.5796 43.784 28.0289 43.8789C27.4781 43.9736 26.9684 44.2309 26.5652 44.6176C26.1618 45.0045 25.8834 45.503 25.7657 46.0492C25.6479 46.5954 25.6963 47.1645 25.9046 47.683C26.1128 48.2016 26.4713 48.6459 26.9341 48.9591C27.3969 49.2724 27.9428 49.4399 28.5015 49.4404C28.8663 49.4662 29.2324 49.4154 29.5762 49.291C29.9201 49.1666 30.2341 48.9718 30.498 48.7186C30.7618 48.4655 30.9698 48.1599 31.1084 47.8216C31.247 47.4833 31.3132 47.1197 31.3026 46.7541Z" fill="#9499A6"/>
<path d="M36.6752 46.9837C36.6729 45.7709 37.0306 44.5845 37.7027 43.5748C38.375 42.5652 39.3316 41.7777 40.4515 41.312C41.5714 40.8462 42.8043 40.7232 43.9942 40.9584C45.1842 41.1937 46.2775 41.7766 47.1361 42.6335C47.9945 43.4903 48.5794 44.5826 48.817 45.7721C49.0544 46.9615 48.9337 48.1947 48.47 49.3156C48.0064 50.4363 47.2207 51.3944 46.2124 52.0685C45.204 52.7427 44.0183 53.1024 42.8054 53.1024C41.9988 53.1117 41.1984 52.9598 40.4512 52.6556C39.7041 52.3516 39.0251 51.9014 38.4542 51.3315C37.8834 50.7617 37.4319 50.0836 37.1263 49.3369C36.8208 48.5904 36.6674 47.7904 36.6752 46.9837ZM45.4688 46.9837C45.4551 46.4601 45.2875 45.9521 44.9867 45.5233C44.686 45.0944 44.2655 44.7639 43.7777 44.5728C43.2901 44.3817 42.7569 44.3388 42.2449 44.4492C41.7328 44.5595 41.2648 44.8185 40.8991 45.1935C40.5336 45.5686 40.2866 46.0432 40.1893 46.5579C40.092 47.0725 40.1487 47.6045 40.352 48.0871C40.5556 48.5697 40.8968 48.9817 41.3331 49.2714C41.7695 49.5611 42.2816 49.7158 42.8054 49.7159C43.1619 49.7227 43.5159 49.6561 43.8454 49.5199C44.1749 49.3838 44.4729 49.1812 44.7206 48.9248C44.9684 48.6686 45.1606 48.3638 45.2854 48.0298C45.4102 47.6959 45.4647 47.3397 45.4458 46.9837H45.4688Z" fill="#9499A6"/>
<path d="M50.5313 38.0983C50.5313 37.6851 50.6539 37.2812 50.8834 36.9376C51.113 36.594 51.4393 36.3262 51.821 36.1681C52.2029 36.0099 52.6229 35.9686 53.0282 36.0492C53.4335 36.1298 53.8058 36.3288 54.098 36.6209C54.3903 36.9132 54.5891 37.2854 54.6697 37.6907C54.7505 38.096 54.709 38.5162 54.551 38.8979C54.3928 39.2796 54.125 39.606 53.7814 39.8356C53.4378 40.0651 53.0339 40.1876 52.6206 40.1876C52.0674 40.1847 51.5378 39.9636 51.1466 39.5724C50.7554 39.1813 50.5344 38.6516 50.5313 38.0983ZM50.8871 41.1979H54.3311V52.7695H50.8871V41.1979Z" fill="#9499A6"/>
<path d="M69.3461 46.9837C69.3878 47.7486 69.2779 48.5143 69.0226 49.2365C68.7672 49.9588 68.3716 50.6234 67.8584 51.1921C67.3451 51.7608 66.7245 52.2224 66.0322 52.5502C65.3398 52.8781 64.5895 53.0658 63.8244 53.1025C63.182 53.1333 62.5406 53.0229 61.9456 52.7789C61.3506 52.5349 60.8163 52.1634 60.3804 51.6905V57.4304H56.9365V41.1979H60.3804V42.2885C60.8163 41.8156 61.3506 41.4441 61.9456 41.2001C62.5406 40.9561 63.182 40.8457 63.8244 40.8765C64.5885 40.9132 65.3379 41.1005 66.0294 41.4277C66.721 41.755 67.3411 42.2155 67.8541 42.7829C68.3673 43.3504 68.7631 44.0136 69.0191 44.7345C69.2753 45.4554 69.3864 46.2198 69.3461 46.9837ZM65.9022 46.9837C65.8886 46.4449 65.7172 45.922 65.4092 45.4796C65.1013 45.0373 64.6705 44.6948 64.17 44.495C63.6695 44.295 63.1212 44.2463 62.5934 44.3548C62.0654 44.4633 61.5808 44.7243 61.1997 45.1054C60.8186 45.4865 60.5577 45.971 60.4491 46.4989C60.3407 47.0269 60.3894 47.5751 60.5893 48.0756C60.7893 48.576 61.1316 49.007 61.574 49.3148C62.0164 49.6228 62.5394 49.7942 63.0782 49.8078C63.4542 49.8317 63.8309 49.7748 64.1832 49.6411C64.5354 49.5073 64.8549 49.2996 65.1203 49.0322C65.3855 48.7646 65.5906 48.4434 65.7216 48.0901C65.8524 47.7369 65.9062 47.3596 65.8792 46.9837H65.9022Z" fill="#9499A6"/>
<path d="M80.0687 49.3027C80.0687 51.966 77.7728 53.1024 75.2472 53.1024C74.2383 53.1918 73.2257 52.9771 72.3399 52.4861C71.4541 51.9951 70.7354 51.2502 70.2765 50.3473L73.2842 48.6369C73.4063 49.0545 73.6676 49.4177 74.0247 49.6662C74.3819 49.9147 74.8132 50.0336 75.2472 50.0029C76.0853 50.0029 76.4985 49.7389 76.4985 49.2797C76.4985 48.0054 70.7586 48.6828 70.7586 44.6878C70.7586 42.1622 72.8939 40.888 75.3505 40.888C76.2571 40.8605 77.1545 41.0758 77.9498 41.5118C78.7451 41.9478 79.4092 42.5886 79.8736 43.3676L76.8544 44.9519C76.7211 44.6487 76.5025 44.3907 76.2253 44.2093C75.9481 44.028 75.6244 43.9309 75.2931 43.9301C74.6962 43.9301 74.3289 44.1597 74.3289 44.5845C74.3748 45.9046 80.0687 45.0207 80.0687 49.3027Z" fill="#9499A6"/>
<path d="M92.7421 41.1979V52.7695H89.2981V51.6905C88.8975 52.1699 88.3891 52.5478 87.8145 52.7932C87.2399 53.0387 86.6153 53.1445 85.9919 53.1025C83.696 53.1025 81.6641 51.4378 81.6641 48.3039V41.1979H85.108V47.7988C85.0777 48.0801 85.1105 48.3646 85.2039 48.6317C85.2973 48.8988 85.4489 49.1417 85.6479 49.3429C85.8468 49.5441 86.0881 49.6983 86.3541 49.7946C86.6201 49.891 86.9043 49.9267 87.1858 49.8996C88.4487 49.8996 89.3326 49.1649 89.3326 47.5233V41.1979H92.7421Z" fill="#9499A6"/>
<path d="M112.648 45.6749V52.7694H109.204V45.9734C109.204 44.8255 108.642 44.0677 107.54 44.0677C106.438 44.0677 105.726 44.8828 105.726 46.2489V52.7694H102.282V45.9734C102.282 44.8255 101.731 44.0677 100.617 44.0677C99.5039 44.0677 98.8151 44.8828 98.8151 46.2489V52.7694H95.3712V41.1978H98.8151V42.2655C99.1751 41.7939 99.6472 41.4198 100.188 41.1773C100.73 40.9347 101.323 40.8312 101.915 40.8764C102.509 40.8475 103.1 40.9731 103.631 41.2405C104.162 41.5081 104.615 41.9087 104.945 42.4032C105.33 41.8862 105.839 41.4749 106.425 41.2079C107.011 40.941 107.655 40.8268 108.297 40.8764C110.915 40.8764 112.648 42.782 112.648 45.6749Z" fill="#9499A6"/>
<path d="M115.587 41.129C117.007 41.129 118.159 39.9777 118.159 38.5575C118.159 37.1373 117.007 35.9861 115.587 35.9861C114.167 35.9861 113.016 37.1373 113.016 38.5575C113.016 39.9777 114.167 41.129 115.587 41.129Z" fill="#9499A6"/>
<path d="M42.1166 27.1238C48.7674 27.1238 54.1588 21.7322 54.1588 15.0814C54.1588 8.4307 48.7674 3.03918 42.1166 3.03918C35.4658 3.03918 30.0743 8.4307 30.0743 15.0814C30.0743 21.7322 35.4658 27.1238 42.1166 27.1238Z" fill="#9499A6"/>
<path d="M69.0366 27.1238C75.6874 27.1238 81.0788 21.7322 81.0788 15.0814C81.0788 8.4307 75.6874 3.03918 69.0366 3.03918C62.3858 3.03918 56.9943 8.4307 56.9943 15.0814C56.9943 21.7322 62.3858 27.1238 69.0366 27.1238Z" fill="#9499A6"/>
<path d="M27.2391 3.03918H3.16602V27.1122H27.2391V3.03918Z" fill="#9499A6"/>
</svg>
